<svg width="208" height="54" viewBox="0 0 208 54" fill="none" xmlns="http://www.w3.org/2000/svg">
<path d="M20.1125 33.5577C20.1125 32.9816 20.0238 32.4646 19.8466 32.0067C19.6841 31.5339 19.3739 31.1055 18.9159 30.7215C18.458 30.3226 17.8154 29.9312 16.9882 29.5471C16.1609 29.163 15.0899 28.7642 13.7752 28.3505C12.3128 27.8778 10.9242 27.346 9.60947 26.7552C8.30952 26.1643 7.1573 25.4774 6.15279 24.6944C5.16306 23.8967 4.38013 22.9735 3.80402 21.9247C3.24268 20.8758 2.96201 19.6571 2.96201 18.2686C2.96201 16.9243 3.25745 15.7056 3.84834 14.6125C4.43922 13.5046 5.26646 12.5591 6.33006 11.7762C7.39365 10.9785 8.64928 10.3655 10.097 9.93708C11.5594 9.50869 13.1622 9.29449 14.9053 9.29449C17.2836 9.29449 19.3591 9.72288 21.1317 10.5797C22.9044 11.4365 24.2782 12.6108 25.2532 14.1028C26.2429 15.5948 26.7378 17.301 26.7378 19.2214H20.1346C20.1346 18.2759 19.9352 17.4487 19.5363 16.7396C19.1523 16.0158 18.5614 15.4471 17.7637 15.0335C16.9808 14.6198 15.991 14.413 14.7945 14.413C13.6423 14.413 12.6821 14.5903 11.9139 14.9448C11.1458 15.2846 10.5697 15.7499 10.1856 16.3408C9.80151 16.9169 9.60947 17.5669 9.60947 18.2907C9.60947 18.8373 9.74242 19.3322 10.0083 19.7753C10.289 20.2185 10.7026 20.6321 11.2492 21.0162C11.7957 21.4003 12.4679 21.7622 13.2656 22.1019C14.0633 22.4417 14.9865 22.7741 16.0353 23.0991C17.7932 23.6308 19.3369 24.2291 20.6664 24.8939C22.0107 25.5586 23.1334 26.3046 24.0345 27.1318C24.9356 27.9591 25.6151 28.8971 26.073 29.9459C26.531 30.9948 26.7599 32.1839 26.7599 33.5134C26.7599 34.9168 26.4866 36.1724 25.9401 37.2803C25.3935 38.3882 24.6032 39.3262 23.5691 40.0944C22.5351 40.8625 21.3016 41.446 19.8687 41.8449C18.4358 42.2437 16.833 42.4432 15.0604 42.4432C13.465 42.4432 11.8918 42.2364 10.3407 41.8227C8.78962 41.3943 7.37888 40.7518 6.10847 39.895C4.85284 39.0382 3.84834 37.945 3.09496 36.6156C2.34158 35.2861 1.96489 33.7128 1.96489 31.8959H8.63451C8.63451 32.9004 8.78962 33.7498 9.09983 34.4441C9.41005 35.1383 9.84582 35.6997 10.4072 36.1281C10.9833 36.5565 11.6628 36.8667 12.4457 37.0587C13.2434 37.2508 14.115 37.3468 15.0604 37.3468C16.2126 37.3468 17.158 37.1843 17.8966 36.8593C18.65 36.5343 19.204 36.0838 19.5585 35.5076C19.9278 34.9315 20.1125 34.2816 20.1125 33.5577ZM43.8217 36.5934V25.9131C43.8217 25.145 43.6962 24.4876 43.445 23.9411C43.1939 23.3797 42.8025 22.9439 42.2707 22.6337C41.7536 22.3235 41.0815 22.1684 40.2543 22.1684C39.5452 22.1684 38.9322 22.294 38.4151 22.5451C37.8981 22.7815 37.4993 23.1286 37.2186 23.5865C36.9379 24.0297 36.7976 24.5541 36.7976 25.1598H30.416C30.416 24.1405 30.6524 23.1729 31.1251 22.257C31.5978 21.3412 32.2847 20.5361 33.1858 19.8418C34.0869 19.1327 35.1579 18.5788 36.3987 18.1799C37.6544 17.7811 39.0577 17.5817 40.6088 17.5817C42.4701 17.5817 44.1246 17.8919 45.5722 18.5123C47.0199 19.1327 48.1574 20.0634 48.9846 21.3042C49.8266 22.5451 50.2476 24.0962 50.2476 25.9575V36.2167C50.2476 37.5314 50.3289 38.6098 50.4914 39.4518C50.6539 40.279 50.8902 41.0029 51.2004 41.6233V42H44.7524C44.4422 41.35 44.2058 40.5376 44.0433 39.5626C43.8956 38.5729 43.8217 37.5831 43.8217 36.5934ZM44.6637 27.3977L44.7081 31.0095H41.1406C40.2986 31.0095 39.5674 31.1055 38.9469 31.2976C38.3265 31.4896 37.8169 31.7629 37.418 32.1174C37.0192 32.4572 36.7237 32.856 36.5317 33.314C36.3544 33.7719 36.2658 34.2742 36.2658 34.8207C36.2658 35.3673 36.3914 35.8622 36.6425 36.3053C36.8936 36.7337 37.2555 37.0735 37.7282 37.3246C38.2009 37.561 38.7549 37.6792 39.3901 37.6792C40.3503 37.6792 41.1849 37.4871 41.894 37.103C42.603 36.719 43.1496 36.2463 43.5337 35.6849C43.9325 35.1236 44.1393 34.5918 44.1541 34.0895L45.8381 36.7928C45.6018 37.3985 45.2768 38.0263 44.8632 38.6763C44.4643 39.3262 43.9547 39.9393 43.3343 40.5154C42.7138 41.0767 41.9678 41.5421 41.0963 41.9114C40.2247 42.2659 39.1907 42.4432 37.9941 42.4432C36.4726 42.4432 35.0914 42.1403 33.8505 41.5347C32.6245 40.9142 31.6495 40.0649 30.9257 38.9865C30.2166 37.8933 29.8621 36.6525 29.8621 35.2639C29.8621 34.0083 30.0984 32.893 30.5711 31.918C31.0438 30.9431 31.7381 30.1232 32.654 29.4585C33.5846 28.7789 34.7443 28.2693 36.1328 27.9295C37.5214 27.575 39.1316 27.3977 40.9633 27.3977H44.6637ZM61.9028 7.965V42H55.4991V7.965H61.9028ZM72.2507 24.7388L78.455 20.7281C79.3709 20.1225 79.9839 19.539 80.2941 18.9776C80.6044 18.4163 80.7595 17.7885 80.7595 17.0942C80.7595 16.3999 80.5009 15.7573 79.9839 15.1664C79.4669 14.5608 78.7431 14.2579 77.8124 14.2579C77.1477 14.2579 76.5863 14.413 76.1284 14.7233C75.6705 15.0187 75.3233 15.4175 75.087 15.9198C74.8654 16.422 74.7546 16.9834 74.7546 17.6038C74.7546 18.2686 74.9319 18.9481 75.2864 19.6424C75.6409 20.3219 76.121 21.0457 76.7267 21.8139C77.3323 22.5673 78.0045 23.3871 78.7431 24.2734L93.9658 42H86.72L74.3114 27.6415C73.2626 26.3415 72.3467 25.1524 71.5638 24.074C70.7809 22.9809 70.1678 21.9173 69.7247 20.8832C69.2815 19.8492 69.0599 18.7856 69.0599 17.6925C69.0599 16.0084 69.4218 14.5386 70.1457 13.283C70.8695 12.0126 71.8888 11.0302 73.2035 10.3359C74.5182 9.62686 76.0619 9.27233 77.8346 9.27233C79.5038 9.27233 80.9515 9.61948 82.1776 10.3138C83.4037 10.9933 84.3491 11.8944 85.0138 13.0171C85.6934 14.1398 86.0331 15.3732 86.0331 16.7175C86.0331 17.722 85.8485 18.6526 85.4792 19.5094C85.1099 20.3514 84.6002 21.1344 83.9502 21.8582C83.3003 22.5673 82.5543 23.2246 81.7123 23.8303L74.6438 28.8602C74.0972 29.3624 73.6836 29.8573 73.4029 30.3448C73.1223 30.8323 72.9302 31.2976 72.8268 31.7408C72.7234 32.1691 72.6717 32.5828 72.6717 32.9816C72.6717 33.8384 72.8564 34.6065 73.2257 35.2861C73.595 35.9656 74.112 36.4974 74.7767 36.8815C75.4415 37.2655 76.217 37.4576 77.1034 37.4576C78.3147 37.4576 79.4891 37.1917 80.6265 36.6599C81.764 36.1281 82.7832 35.3673 83.6843 34.3776C84.5854 33.3731 85.3019 32.1839 85.8337 30.8101C86.3655 29.4363 86.6314 27.9222 86.6314 26.2677H92.038C92.038 27.9222 91.8755 29.4954 91.5505 30.9874C91.2255 32.4646 90.7011 33.8384 89.9773 35.1088C89.2534 36.3644 88.2933 37.4797 87.0967 38.4547C87.0081 38.5285 86.8825 38.6393 86.72 38.7871C86.5723 38.92 86.4467 39.0234 86.3433 39.0973C84.9252 40.2347 83.448 41.0841 81.9117 41.6455C80.3754 42.192 78.6618 42.4653 76.771 42.4653C74.6143 42.4653 72.7456 42.0739 71.165 41.2909C69.5991 40.508 68.3878 39.4296 67.531 38.0558C66.689 36.682 66.268 35.1088 66.268 33.3361C66.268 32.0362 66.5191 30.9061 67.0214 29.9459C67.5384 28.971 68.2475 28.0699 69.1486 27.2426C70.0497 26.4154 71.0837 25.5808 72.2507 24.7388Z" fill="white"/>
<g filter="url(#filter0_d_13318_5)">
<path d="M98.2017 28.5289H89.7319L89.6866 23.8637H96.7976C98.0507 23.8637 99.0774 23.7052 99.8775 23.3881C100.678 23.056 101.274 22.5804 101.667 21.9614C102.074 21.3273 102.278 20.5573 102.278 19.6515C102.278 18.6248 102.082 17.7945 101.689 17.1604C101.312 16.5263 100.715 16.0658 99.9002 15.7789C99.1 15.4921 98.0658 15.3486 96.7976 15.3486H92.0871V43H85.2932V10.0267H96.7976C98.715 10.0267 100.429 10.2079 101.938 10.5702C103.463 10.9326 104.754 11.4836 105.811 12.2234C106.868 12.9632 107.675 13.8993 108.234 15.0316C108.793 16.1488 109.072 17.4774 109.072 19.0174C109.072 20.3762 108.763 21.6293 108.144 22.7767C107.54 23.9241 106.581 24.8602 105.267 25.5849C103.969 26.3095 102.271 26.7096 100.172 26.7851L98.2017 28.5289ZM97.9073 43H87.8749L90.5245 37.7007H97.9073C99.1 37.7007 100.074 37.512 100.829 37.1346C101.584 36.742 102.142 36.2136 102.505 35.5493C102.867 34.885 103.048 34.1226 103.048 33.262C103.048 32.2958 102.882 31.4578 102.55 30.7483C102.233 30.0387 101.719 29.4951 101.01 29.1177C100.3 28.7252 99.3642 28.5289 98.2017 28.5289H91.6569L91.7022 23.8637H99.8549L101.417 25.6981C103.425 25.6679 105.041 26.0227 106.264 26.7625C107.502 27.4872 108.4 28.4308 108.959 29.5933C109.532 30.7558 109.819 32.0014 109.819 33.33C109.819 35.4436 109.359 37.2251 108.438 38.6745C107.517 40.1088 106.166 41.1883 104.384 41.913C102.618 42.6377 100.459 43 97.9073 43ZM121.029 23.8411V43H114.507V18.4965H120.644L121.029 23.8411ZM128.412 18.338L128.299 24.3846C127.982 24.3393 127.597 24.3016 127.144 24.2714C126.706 24.2261 126.306 24.2034 125.944 24.2034C125.023 24.2034 124.223 24.3242 123.543 24.5658C122.879 24.7922 122.32 25.1319 121.867 25.5849C121.429 26.0378 121.097 26.5888 120.871 27.238C120.659 27.8872 120.539 28.627 120.508 29.4574L119.195 29.0498C119.195 27.4645 119.354 26.0076 119.671 24.679C119.988 23.3353 120.448 22.1652 121.052 21.1688C121.671 20.1723 122.426 19.4024 123.317 18.8588C124.207 18.3153 125.227 18.0436 126.374 18.0436C126.736 18.0436 127.106 18.0738 127.484 18.1342C127.861 18.1795 128.171 18.2474 128.412 18.338ZM143.948 37.4743V26.5587C143.948 25.7736 143.819 25.1017 143.563 24.5431C143.306 23.9694 142.906 23.524 142.362 23.207C141.834 22.8899 141.147 22.7314 140.302 22.7314C139.577 22.7314 138.95 22.8597 138.422 23.1164C137.893 23.3579 137.486 23.7127 137.199 24.1808C136.912 24.6337 136.769 25.1697 136.769 25.7887H130.246C130.246 24.7469 130.488 23.758 130.971 22.822C131.454 21.8859 132.156 21.0631 133.077 20.3535C133.998 19.6288 135.093 19.0627 136.361 18.655C137.644 18.2474 139.079 18.0436 140.664 18.0436C142.566 18.0436 144.257 18.3606 145.737 18.9947C147.216 19.6288 148.379 20.58 149.224 21.8482C150.085 23.1164 150.515 24.7016 150.515 26.6039V37.0893C150.515 38.433 150.598 39.5351 150.764 40.3957C150.93 41.2411 151.172 41.9809 151.489 42.615V43H144.899C144.582 42.3357 144.34 41.5053 144.174 40.5089C144.023 39.4973 143.948 38.4858 143.948 37.4743ZM144.808 28.076L144.853 31.7673H141.207C140.347 31.7673 139.599 31.8655 138.965 32.0617C138.331 32.258 137.81 32.5373 137.403 32.8997C136.995 33.2469 136.693 33.6546 136.497 34.1226C136.316 34.5906 136.225 35.1039 136.225 35.6625C136.225 36.2212 136.353 36.7269 136.61 37.1799C136.867 37.6177 137.237 37.9649 137.72 38.2216C138.203 38.4632 138.769 38.5839 139.418 38.5839C140.4 38.5839 141.253 38.3877 141.977 37.9951C142.702 37.6026 143.261 37.1195 143.653 36.5458C144.061 35.972 144.272 35.4285 144.287 34.9152L146.008 37.6781C145.767 38.2971 145.435 38.9387 145.012 39.603C144.604 40.2673 144.083 40.8939 143.449 41.4827C142.815 42.0564 142.053 42.532 141.162 42.9094C140.271 43.2718 139.214 43.4529 137.992 43.4529C136.437 43.4529 135.025 43.1434 133.757 42.5244C132.504 41.8903 131.507 41.0222 130.767 39.9201C130.043 38.8029 129.68 37.5346 129.68 36.1155C129.68 34.8322 129.922 33.6923 130.405 32.6958C130.888 31.6994 131.598 30.8615 132.534 30.1821C133.485 29.4876 134.67 28.9667 136.089 28.6195C137.508 28.2571 139.154 28.076 141.026 28.076H144.808ZM168.791 36.2287C168.791 35.7607 168.655 35.3379 168.383 34.9605C168.111 34.5831 167.606 34.2358 166.866 33.9188C166.141 33.5866 165.092 33.2847 163.718 33.0129C162.48 32.7411 161.325 32.4014 160.253 31.9938C159.196 31.5711 158.275 31.0653 157.49 30.4765C156.72 29.8877 156.116 29.1932 155.678 28.393C155.241 27.5777 155.022 26.6492 155.022 25.6075C155.022 24.5809 155.241 23.6146 155.678 22.7087C156.131 21.8029 156.773 21.0027 157.603 20.3082C158.449 19.5986 159.476 19.0476 160.683 18.655C161.906 18.2474 163.28 18.0436 164.805 18.0436C166.934 18.0436 168.761 18.3833 170.285 19.0627C171.825 19.7421 173.003 20.6781 173.818 21.8708C174.649 23.0484 175.064 24.3921 175.064 25.9019H168.542C168.542 25.2678 168.406 24.7016 168.134 24.2034C167.877 23.6901 167.47 23.29 166.911 23.0032C166.368 22.7012 165.658 22.5502 164.782 22.5502C164.058 22.5502 163.431 22.6786 162.903 22.9352C162.374 23.1768 161.967 23.5089 161.68 23.9317C161.408 24.3393 161.272 24.7922 161.272 25.2904C161.272 25.6679 161.348 26.0076 161.499 26.3095C161.665 26.5964 161.929 26.8606 162.291 27.1022C162.654 27.3437 163.122 27.5702 163.695 27.7816C164.284 27.9778 165.009 28.159 165.869 28.3251C167.636 28.6874 169.214 29.163 170.603 29.7518C171.991 30.3255 173.094 31.1106 173.909 32.107C174.724 33.0884 175.132 34.3792 175.132 35.9796C175.132 37.0666 174.89 38.0631 174.407 38.9689C173.924 39.8748 173.23 40.6674 172.324 41.3468C171.418 42.0111 170.331 42.532 169.063 42.9094C167.809 43.2718 166.398 43.4529 164.828 43.4529C162.548 43.4529 160.615 43.0453 159.03 42.23C157.46 41.4147 156.267 40.3806 155.452 39.1275C154.652 37.8592 154.252 36.5608 154.252 35.2323H160.434C160.464 36.123 160.691 36.8402 161.114 37.3837C161.551 37.9272 162.103 38.3197 162.767 38.5613C163.446 38.8029 164.178 38.9236 164.964 38.9236C165.809 38.9236 166.511 38.8104 167.07 38.5839C167.628 38.3424 168.051 38.0253 168.338 37.6328C168.64 37.2251 168.791 36.7571 168.791 36.2287ZM192.592 37.4743V26.5587C192.592 25.7736 192.464 25.1017 192.207 24.5431C191.951 23.9694 191.551 23.524 191.007 23.207C190.479 22.8899 189.792 22.7314 188.946 22.7314C188.221 22.7314 187.595 22.8597 187.067 23.1164C186.538 23.3579 186.13 23.7127 185.844 24.1808C185.557 24.6337 185.413 25.1697 185.413 25.7887H178.891C178.891 24.7469 179.133 23.758 179.616 22.822C180.099 21.8859 180.801 21.0631 181.722 20.3535C182.643 19.6288 183.737 19.0627 185.006 18.655C186.289 18.2474 187.723 18.0436 189.309 18.0436C191.211 18.0436 192.902 18.3606 194.381 18.9947C195.861 19.6288 197.023 20.58 197.869 21.8482C198.729 23.1164 199.16 24.7016 199.16 26.6039V37.0893C199.16 38.433 199.243 39.5351 199.409 40.3957C199.575 41.2411 199.816 41.9809 200.134 42.615V43H193.543C193.226 42.3357 192.985 41.5053 192.819 40.5089C192.668 39.4973 192.592 38.4858 192.592 37.4743ZM193.453 28.076L193.498 31.7673H189.852C188.991 31.7673 188.244 31.8655 187.61 32.0617C186.976 32.258 186.455 32.5373 186.047 32.8997C185.64 33.2469 185.338 33.6546 185.142 34.1226C184.96 34.5906 184.87 35.1039 184.87 35.6625C184.87 36.2212 184.998 36.7269 185.255 37.1799C185.511 37.6177 185.881 37.9649 186.364 38.2216C186.848 38.4632 187.414 38.5839 188.063 38.5839C189.044 38.5839 189.897 38.3877 190.622 37.9951C191.347 37.6026 191.905 37.1195 192.298 36.5458C192.705 35.972 192.917 35.4285 192.932 34.9152L194.653 37.6781C194.412 38.2971 194.079 38.9387 193.657 39.603C193.249 40.2673 192.728 40.8939 192.094 41.4827C191.46 42.0564 190.697 42.532 189.807 42.9094C188.916 43.2718 187.859 43.4529 186.636 43.4529C185.081 43.4529 183.67 43.1434 182.401 42.5244C181.148 41.8903 180.152 41.0222 179.412 39.9201C178.687 38.8029 178.325 37.5346 178.325 36.1155C178.325 34.8322 178.567 33.6923 179.05 32.6958C179.533 31.6994 180.242 30.8615 181.178 30.1821C182.13 29.4876 183.315 28.9667 184.734 28.6195C186.153 28.2571 187.799 28.076 189.671 28.076H193.453Z" fill="#FF3F4B"/>
</g>
<defs>
<filter id="filter0_d_13318_5" x="76.2932" y="0.0267334" width="130.84" height="49.4262" filterUnits="userSpaceOnUse" color-interpolation-filters="sRGB">
<feFlood flood-opacity="0" result="BackgroundImageFix"/>
<feColorMatrix in="SourceAlpha" type="matrix" values="0 0 0 0 0 0 0 0 0 0 0 0 0 0 0 0 0 0 127 0" result="hardAlpha"/>
<feOffset dx="-1" dy="-2"/>
<feGaussianBlur stdDeviation="4"/>
<feComposite in2="hardAlpha" operator="out"/>
<feColorMatrix type="matrix" values="0 0 0 0 0 0 0 0 0 0 0 0 0 0 0 0 0 0 0.5 0"/>
<feBlend mode="normal" in2="BackgroundImageFix" result="effect1_dropShadow_13318_5"/>
<feBlend mode="normal" in="SourceGraphic" in2="effect1_dropShadow_13318_5" result="shape"/>
</filter>
</defs>
</svg>
