<svg width="76" height="54" viewBox="0 0 76 54" fill="none" xmlns="http://www.w3.org/2000/svg">
<g filter="url(#filter0_d_13329_5)">
<mask id="path-1-outside-1_13329_5" maskUnits="userSpaceOnUse" x="23" y="9" width="32" height="36" fill="black">
<rect fill="white" x="23" y="9" width="32" height="36"/>
<path d="M30.6213 25.7388L36.8256 21.7281C37.7415 21.1225 38.3545 20.539 38.6647 19.9776C38.975 19.4163 39.1301 18.7885 39.1301 18.0942C39.1301 17.3999 38.8716 16.7573 38.3545 16.1664C37.8375 15.5608 37.1137 15.2579 36.183 15.2579C35.5183 15.2579 34.9569 15.413 34.499 15.7233C34.0411 16.0187 33.6939 16.4175 33.4576 16.9198C33.236 17.422 33.1252 17.9834 33.1252 18.6038C33.1252 19.2686 33.3025 19.9481 33.657 20.6424C34.0115 21.3219 34.4916 22.0457 35.0973 22.8139C35.7029 23.5673 36.3751 24.3871 37.1137 25.2734L52.3364 43H45.0906L32.682 28.6415C31.6332 27.3415 30.7173 26.1524 29.9344 25.074C29.1515 23.9809 28.5384 22.9173 28.0953 21.8832C27.6521 20.8492 27.4305 19.7856 27.4305 18.6925C27.4305 17.0084 27.7925 15.5386 28.5163 14.283C29.2401 13.0126 30.2594 12.0302 31.5741 11.3359C32.8888 10.6269 34.4325 10.2723 36.2052 10.2723C37.8744 10.2723 39.3221 10.6195 40.5482 11.3138C41.7743 11.9933 42.7197 12.8944 43.3844 14.0171C44.064 15.1398 44.4037 16.3732 44.4037 17.7175C44.4037 18.722 44.2191 19.6526 43.8498 20.5094C43.4805 21.3514 42.9708 22.1344 42.3208 22.8582C41.6709 23.5673 40.9249 24.2246 40.0829 24.8303L33.0144 29.8602C32.4678 30.3624 32.0542 30.8573 31.7735 31.3448C31.4929 31.8323 31.3008 32.2976 31.1974 32.7408C31.094 33.1691 31.0423 33.5828 31.0423 33.9816C31.0423 34.8384 31.227 35.6065 31.5963 36.2861C31.9656 36.9656 32.4826 37.4974 33.1474 37.8815C33.8121 38.2655 34.5876 38.4576 35.474 38.4576C36.6853 38.4576 37.8597 38.1917 38.9971 37.6599C40.1346 37.1281 41.1539 36.3673 42.055 35.3776C42.9561 34.3731 43.6725 33.1839 44.2043 31.8101C44.7361 30.4363 45.002 28.9222 45.002 27.2677H50.4086C50.4086 28.9222 50.2461 30.4954 49.9211 31.9874C49.5961 33.4646 49.0717 34.8384 48.3479 36.1088C47.624 37.3644 46.6639 38.4797 45.4673 39.4547C45.3787 39.5285 45.2531 39.6393 45.0906 39.7871C44.9429 39.92 44.8173 40.0234 44.7139 40.0973C43.2958 41.2347 41.8186 42.0841 40.2823 42.6455C38.746 43.192 37.0324 43.4653 35.1416 43.4653C32.9849 43.4653 31.1162 43.0739 29.5356 42.2909C27.9697 41.508 26.7584 40.4296 25.9016 39.0558C25.0596 37.682 24.6386 36.1088 24.6386 34.3361C24.6386 33.0362 24.8897 31.9061 25.392 30.9459C25.909 29.971 26.6181 29.0699 27.5192 28.2426C28.4203 27.4154 29.4543 26.5808 30.6213 25.7388Z"/>
</mask>
<path d="M30.6213 25.7388L36.8256 21.7281C37.7415 21.1225 38.3545 20.539 38.6647 19.9776C38.975 19.4163 39.1301 18.7885 39.1301 18.0942C39.1301 17.3999 38.8716 16.7573 38.3545 16.1664C37.8375 15.5608 37.1137 15.2579 36.183 15.2579C35.5183 15.2579 34.9569 15.413 34.499 15.7233C34.0411 16.0187 33.6939 16.4175 33.4576 16.9198C33.236 17.422 33.1252 17.9834 33.1252 18.6038C33.1252 19.2686 33.3025 19.9481 33.657 20.6424C34.0115 21.3219 34.4916 22.0457 35.0973 22.8139C35.7029 23.5673 36.3751 24.3871 37.1137 25.2734L52.3364 43H45.0906L32.682 28.6415C31.6332 27.3415 30.7173 26.1524 29.9344 25.074C29.1515 23.9809 28.5384 22.9173 28.0953 21.8832C27.6521 20.8492 27.4305 19.7856 27.4305 18.6925C27.4305 17.0084 27.7925 15.5386 28.5163 14.283C29.2401 13.0126 30.2594 12.0302 31.5741 11.3359C32.8888 10.6269 34.4325 10.2723 36.2052 10.2723C37.8744 10.2723 39.3221 10.6195 40.5482 11.3138C41.7743 11.9933 42.7197 12.8944 43.3844 14.0171C44.064 15.1398 44.4037 16.3732 44.4037 17.7175C44.4037 18.722 44.2191 19.6526 43.8498 20.5094C43.4805 21.3514 42.9708 22.1344 42.3208 22.8582C41.6709 23.5673 40.9249 24.2246 40.0829 24.8303L33.0144 29.8602C32.4678 30.3624 32.0542 30.8573 31.7735 31.3448C31.4929 31.8323 31.3008 32.2976 31.1974 32.7408C31.094 33.1691 31.0423 33.5828 31.0423 33.9816C31.0423 34.8384 31.227 35.6065 31.5963 36.2861C31.9656 36.9656 32.4826 37.4974 33.1474 37.8815C33.8121 38.2655 34.5876 38.4576 35.474 38.4576C36.6853 38.4576 37.8597 38.1917 38.9971 37.6599C40.1346 37.1281 41.1539 36.3673 42.055 35.3776C42.9561 34.3731 43.6725 33.1839 44.2043 31.8101C44.7361 30.4363 45.002 28.9222 45.002 27.2677H50.4086C50.4086 28.9222 50.2461 30.4954 49.9211 31.9874C49.5961 33.4646 49.0717 34.8384 48.3479 36.1088C47.624 37.3644 46.6639 38.4797 45.4673 39.4547C45.3787 39.5285 45.2531 39.6393 45.0906 39.7871C44.9429 39.92 44.8173 40.0234 44.7139 40.0973C43.2958 41.2347 41.8186 42.0841 40.2823 42.6455C38.746 43.192 37.0324 43.4653 35.1416 43.4653C32.9849 43.4653 31.1162 43.0739 29.5356 42.2909C27.9697 41.508 26.7584 40.4296 25.9016 39.0558C25.0596 37.682 24.6386 36.1088 24.6386 34.3361C24.6386 33.0362 24.8897 31.9061 25.392 30.9459C25.909 29.971 26.6181 29.0699 27.5192 28.2426C28.4203 27.4154 29.4543 26.5808 30.6213 25.7388Z" fill="white"/>
<path d="M30.6213 25.7388L30.0784 24.8989L30.057 24.9128L30.0362 24.9278L30.6213 25.7388ZM36.8256 21.7281L37.3685 22.568L37.3772 22.5622L36.8256 21.7281ZM38.3545 16.1664L37.5939 16.8157L37.602 16.8249L38.3545 16.1664ZM34.499 15.7233L35.0411 16.5635L35.0506 16.5575L35.0599 16.5512L34.499 15.7233ZM33.4576 16.9198L32.5527 16.494L32.5476 16.505L32.5427 16.5162L33.4576 16.9198ZM33.657 20.6424L32.7664 21.0972L32.7704 21.1049L33.657 20.6424ZM35.0973 22.8139L34.312 23.4331L34.3179 23.4404L35.0973 22.8139ZM37.1137 25.2734L36.3455 25.9136L36.3502 25.9193L36.355 25.9249L37.1137 25.2734ZM52.3364 43V44H54.5132L53.095 42.3485L52.3364 43ZM45.0906 43L44.334 43.6539L44.6331 44H45.0906V43ZM32.682 28.6415L31.9038 29.2694L31.9144 29.2826L31.9254 29.2953L32.682 28.6415ZM29.9344 25.074L29.1214 25.6563L29.1252 25.6615L29.9344 25.074ZM28.5163 14.283L29.3827 14.7824L29.3852 14.778L28.5163 14.283ZM31.5741 11.3359L32.0411 12.2202L32.0488 12.2161L31.5741 11.3359ZM40.5482 11.3138L40.0554 12.184L40.0634 12.1884L40.5482 11.3138ZM43.3844 14.0171L42.5239 14.5266L42.5289 14.5349L43.3844 14.0171ZM43.8498 20.5094L44.7656 20.9111L44.7681 20.9053L43.8498 20.5094ZM42.3208 22.8582L43.058 23.534L43.0649 23.5263L42.3208 22.8582ZM40.0829 24.8303L40.6627 25.6451L40.6668 25.6421L40.0829 24.8303ZM33.0144 29.8602L32.4346 29.0454L32.3837 29.0816L32.3378 29.1239L33.0144 29.8602ZM31.1974 32.7408L32.1695 32.9754L32.1713 32.968L31.1974 32.7408ZM42.055 35.3776L42.7944 36.0508L42.7993 36.0453L42.055 35.3776ZM45.002 27.2677V26.2677H44.002V27.2677H45.002ZM50.4086 27.2677H51.4086V26.2677H50.4086V27.2677ZM49.9211 31.9874L50.8978 32.2022L50.8982 32.2002L49.9211 31.9874ZM48.3479 36.1088L49.2142 36.6082L49.2167 36.6038L48.3479 36.1088ZM45.4673 39.4547L44.8356 38.6794L44.8271 38.6865L45.4673 39.4547ZM45.0906 39.7871L45.7596 40.5304L45.7633 40.527L45.0906 39.7871ZM44.7139 40.0973L44.1327 39.2835L44.11 39.2998L44.0883 39.3172L44.7139 40.0973ZM40.2823 42.6455L40.6175 43.5877L40.6255 43.5847L40.2823 42.6455ZM29.5356 42.2909L29.0883 43.1854L29.0917 43.187L29.5356 42.2909ZM25.9016 39.0558L25.049 39.5784L25.0531 39.585L25.9016 39.0558ZM25.392 30.9459L24.5085 30.4774L24.5059 30.4824L25.392 30.9459ZM31.1642 26.5786L37.3685 22.5679L36.2827 20.8883L30.0784 24.8989L31.1642 26.5786ZM37.3772 22.5622C38.3443 21.9227 39.1146 21.231 39.54 20.4613L37.7895 19.4939C37.5945 19.8469 37.1387 20.3222 36.274 20.894L37.3772 22.5622ZM39.54 20.4613C39.9387 19.7398 40.1301 18.9433 40.1301 18.0942H38.1301C38.1301 18.6336 38.0112 19.0928 37.7895 19.4939L39.54 20.4613ZM40.1301 18.0942C40.1301 17.1258 39.7613 16.2556 39.1071 15.5079L37.602 16.8249C37.9818 17.259 38.1301 17.674 38.1301 18.0942H40.1301ZM39.1151 15.5172C38.3752 14.6505 37.3516 14.2579 36.183 14.2579V16.2579C36.8757 16.2579 37.2998 16.4711 37.594 16.8157L39.1151 15.5172ZM36.183 14.2579C35.3593 14.2579 34.5926 14.452 33.9382 14.8953L35.0599 16.5512C35.3213 16.3741 35.6772 16.2579 36.183 16.2579V14.2579ZM33.9569 14.883C33.3386 15.2819 32.8673 15.8257 32.5527 16.494L34.3624 17.3456C34.5206 17.0094 34.7436 16.7555 35.0411 16.5635L33.9569 14.883ZM32.5427 16.5162C32.2581 17.1611 32.1252 17.8625 32.1252 18.6038H34.1252C34.1252 18.1043 34.2139 17.6829 34.3725 17.3234L32.5427 16.5162ZM32.1252 18.6038C32.1252 19.4519 32.3523 20.2863 32.7664 21.0971L34.5476 20.1876C34.2526 19.6098 34.1252 19.0853 34.1252 18.6038H32.1252ZM32.7704 21.1049C33.1604 21.8524 33.6778 22.6286 34.312 23.433L35.8825 22.1947C35.3055 21.4628 34.8627 20.7914 34.5436 20.1798L32.7704 21.1049ZM34.3179 23.4404C34.9279 24.1992 35.6038 25.0236 36.3455 25.9136L37.8819 24.6333C37.1464 23.7506 36.478 22.9354 35.8767 22.1873L34.3179 23.4404ZM36.355 25.9249L51.5777 43.6515L53.095 42.3485L37.8723 24.6219L36.355 25.9249ZM52.3364 42H45.0906V44H52.3364V42ZM45.8472 42.3461L33.4386 27.9876L31.9254 29.2953L44.334 43.6539L45.8472 42.3461ZM33.4603 28.0136C32.4196 26.7237 31.5145 25.5482 30.7436 24.4865L29.1252 25.6615C29.9202 26.7565 30.8468 27.9594 31.9038 29.2694L33.4603 28.0136ZM30.7474 24.4917C29.9987 23.4464 29.4242 22.4455 29.0144 21.4893L27.1761 22.2772C27.6527 23.389 28.3043 24.5154 29.1214 25.6563L30.7474 24.4917ZM29.0144 21.4893C28.623 20.576 28.4305 19.6462 28.4305 18.6925H26.4305C26.4305 19.925 26.6812 21.1223 27.1761 22.2772L29.0144 21.4893ZM28.4305 18.6925C28.4305 17.155 28.7597 15.8631 29.3826 14.7824L27.6499 13.7835C26.8252 15.2141 26.4305 16.8618 26.4305 18.6925H28.4305ZM29.3852 14.778C30.0131 13.6759 30.8916 12.8272 32.0411 12.2202L31.1071 10.4517C29.6272 11.2332 28.4671 12.3493 27.6474 13.7879L29.3852 14.778ZM32.0488 12.2161C33.1927 11.5992 34.5673 11.2723 36.2052 11.2723V9.27233C34.2977 9.27233 32.585 9.65458 31.0994 10.4558L32.0488 12.2161ZM36.2052 11.2723C37.7337 11.2723 39.0052 11.5892 40.0554 12.1839L41.0409 10.4436C39.639 9.64972 38.0151 9.27233 36.2052 9.27233V11.2723ZM40.0634 12.1884C41.146 12.7884 41.9565 13.5682 42.524 14.5266L44.2449 13.5076C43.4829 12.2206 42.4025 11.1982 41.0329 10.4391L40.0634 12.1884ZM42.5289 14.5349C43.1115 15.4974 43.4037 16.5511 43.4037 17.7175H45.4037C45.4037 16.1953 45.0164 14.7821 44.2399 13.4993L42.5289 14.5349ZM43.4037 17.7175C43.4037 18.5964 43.2428 19.3912 42.9314 20.1136L44.7681 20.9053C45.1953 19.9141 45.4037 18.8476 45.4037 17.7175H43.4037ZM42.934 20.1078C42.6098 20.8469 42.1599 21.5407 41.5768 22.1901L43.0649 23.5263C43.7818 22.728 44.3511 21.856 44.7656 20.9111L42.934 20.1078ZM41.5837 22.1825C40.9835 22.8373 40.2897 23.4497 39.4989 24.0185L40.6668 25.6421C41.5601 24.9995 42.3583 24.2972 43.058 23.5339L41.5837 22.1825ZM39.5031 24.0155L32.4346 29.0454L33.5942 30.675L40.6627 25.645L39.5031 24.0155ZM32.3378 29.1239C31.7386 29.6744 31.2517 30.2469 30.9069 30.8458L32.6402 31.8437C32.8567 31.4677 33.197 31.0505 33.691 30.5965L32.3378 29.1239ZM30.9069 30.8458C30.5884 31.399 30.3538 31.9556 30.2236 32.5135L32.1713 32.968C32.2479 32.6395 32.3973 32.2656 32.6402 31.8437L30.9069 30.8458ZM30.2253 32.5061C30.1053 33.0034 30.0423 33.496 30.0423 33.9816H32.0423C32.0423 33.6696 32.0827 33.3349 32.1695 32.9754L30.2253 32.5061ZM30.0423 33.9816C30.0423 34.9869 30.2604 35.9222 30.7177 36.7636L32.4749 35.8086C32.1936 35.2909 32.0423 34.6899 32.0423 33.9816H30.0423ZM30.7177 36.7636C31.1742 37.6037 31.8216 38.2704 32.6471 38.7473L33.6476 37.0156C33.1436 36.7244 32.7569 36.3275 32.4749 35.8086L30.7177 36.7636ZM32.6471 38.7473C33.4861 39.2321 34.4395 39.4576 35.474 39.4576V37.4576C34.7358 37.4576 34.1381 37.299 33.6476 37.0156L32.6471 38.7473ZM35.474 39.4576C36.837 39.4576 38.1556 39.1572 39.4206 38.5658L38.5736 36.754C37.5637 37.2261 36.5335 37.4576 35.474 37.4576V39.4576ZM39.4206 38.5658C40.6855 37.9744 41.8103 37.1317 42.7944 36.0508L41.3155 34.7044C40.4974 35.603 39.5837 36.2817 38.5736 36.754L39.4206 38.5658ZM42.7993 36.0453C43.7883 34.9429 44.5654 33.6473 45.1369 32.1711L43.2717 31.4491C42.7796 32.7205 42.1238 33.8033 41.3106 34.7098L42.7993 36.0453ZM45.1369 32.1711C45.7184 30.6689 46.002 29.0305 46.002 27.2677H44.002C44.002 28.8138 43.7538 30.2037 43.2717 31.4491L45.1369 32.1711ZM45.002 28.2677H50.4086V26.2677H45.002V28.2677ZM49.4086 27.2677C49.4086 28.8565 49.2526 30.358 48.944 31.7745L50.8982 32.2002C51.2396 30.6328 51.4086 28.9878 51.4086 27.2677H49.4086ZM48.9445 31.7725C48.6404 33.1549 48.1513 34.4338 47.479 35.6137L49.2167 36.6038C49.9921 35.243 50.5519 33.7743 50.8978 32.2022L48.9445 31.7725ZM47.4815 35.6094C46.8223 36.7529 45.944 37.7763 44.8356 38.6795L46.099 40.2299C47.3837 39.1831 48.4258 37.976 49.2142 36.6082L47.4815 35.6094ZM44.8271 38.6865C44.7217 38.7744 44.5834 38.8967 44.418 39.0471L45.7633 40.527C45.9228 40.382 46.0357 40.2827 46.1075 40.2229L44.8271 38.6865ZM44.4217 39.0438C44.2882 39.1639 44.1936 39.2401 44.1327 39.2835L45.2952 40.911C45.4411 40.8068 45.5976 40.6761 45.7596 40.5304L44.4217 39.0438ZM44.0883 39.3172C42.7456 40.3941 41.3625 41.1861 39.9391 41.7062L40.6255 43.5847C42.2747 42.9821 43.846 42.0754 45.3396 40.8774L44.0883 39.3172ZM39.9471 41.7033C38.5341 42.206 36.9361 42.4653 35.1416 42.4653V44.4653C37.1287 44.4653 38.9579 44.178 40.6175 43.5876L39.9471 41.7033ZM35.1416 42.4653C33.1051 42.4653 31.3947 42.0959 29.9794 41.3948L29.0917 43.187C30.8376 44.0518 32.8646 44.4653 35.1416 44.4653V42.4653ZM29.9828 41.3965C28.5679 40.6891 27.5015 39.7314 26.7501 38.5267L25.0531 39.585C26.0154 41.1279 27.3715 42.327 29.0884 43.1854L29.9828 41.3965ZM26.7542 38.5333C26.0181 37.3322 25.6386 35.9434 25.6386 34.3361H23.6386C23.6386 36.2742 24.1011 38.0318 25.049 39.5784L26.7542 38.5333ZM25.6386 34.3361C25.6386 33.1656 25.8642 32.2007 26.2781 31.4094L24.5059 30.4824C23.9153 31.6116 23.6386 32.9068 23.6386 34.3361H25.6386ZM26.2754 31.4144C26.7337 30.5503 27.3691 29.7379 28.1954 28.9793L26.8429 27.506C25.867 28.4019 25.0843 29.3917 24.5085 30.4774L26.2754 31.4144ZM28.1954 28.9793C29.0631 28.1827 30.0659 27.3726 31.2064 26.5497L30.0362 24.9278C28.8428 25.7889 27.7774 26.6481 26.8429 27.506L28.1954 28.9793Z" fill="black" mask="url(#path-1-outside-1_13329_5)"/>
</g>
<g filter="url(#filter1_d_13329_5)">
<mask id="path-3-outside-2_13329_5" maskUnits="userSpaceOnUse" x="3" y="9" width="28" height="36" fill="black">
<rect fill="white" x="3" y="9" width="28" height="36"/>
<path d="M22.6947 34.5577C22.6947 33.9816 22.606 33.4646 22.4288 33.0067C22.2663 32.5339 21.9561 32.1055 21.4981 31.7215C21.0402 31.3226 20.3976 30.9312 19.5704 30.5471C18.7431 30.163 17.6721 29.7642 16.3574 29.3505C14.895 28.8778 13.5064 28.346 12.1917 27.7552C10.8917 27.1643 9.73949 26.4774 8.73499 25.6944C7.74526 24.8967 6.96233 23.9735 6.38622 22.9247C5.82488 21.8758 5.54421 20.6571 5.54421 19.2686C5.54421 17.9243 5.83965 16.7056 6.43054 15.6125C7.02142 14.5046 7.84866 13.5591 8.91226 12.7762C9.97585 11.9785 11.2315 11.3655 12.6792 10.9371C14.1416 10.5087 15.7444 10.2945 17.4875 10.2945C19.8658 10.2945 21.9413 10.7229 23.7139 11.5797C25.4866 12.4365 26.8604 13.6108 27.8354 15.1028C28.8251 16.5948 29.32 18.301 29.32 20.2214H22.7168C22.7168 19.2759 22.5174 18.4487 22.1185 17.7396C21.7345 17.0158 21.1436 16.4471 20.3459 16.0335C19.563 15.6198 18.5732 15.413 17.3767 15.413C16.2245 15.413 15.2643 15.5903 14.4961 15.9448C13.728 16.2846 13.1519 16.7499 12.7678 17.3408C12.3837 17.9169 12.1917 18.5669 12.1917 19.2907C12.1917 19.8373 12.3246 20.3322 12.5905 20.7753C12.8712 21.2185 13.2848 21.6321 13.8314 22.0162C14.3779 22.4003 15.0501 22.7622 15.8478 23.1019C16.6455 23.4417 17.5687 23.7741 18.6175 24.0991C20.3754 24.6308 21.9191 25.2291 23.2486 25.8939C24.5929 26.5586 25.7156 27.3046 26.6167 28.1318C27.5178 28.9591 28.1973 29.8971 28.6552 30.9459C29.1132 31.9948 29.3421 33.1839 29.3421 34.5134C29.3421 35.9168 29.0688 37.1724 28.5223 38.2803C27.9757 39.3882 27.1854 40.3262 26.1513 41.0944C25.1173 41.8625 23.8838 42.446 22.4509 42.8449C21.018 43.2437 19.4152 43.4432 17.6426 43.4432C16.0472 43.4432 14.474 43.2364 12.9229 42.8227C11.3718 42.3943 9.96108 41.7518 8.69067 40.895C7.43504 40.0382 6.43054 38.945 5.67716 37.6156C4.92378 36.2861 4.54709 34.7128 4.54709 32.8959H11.2167C11.2167 33.9004 11.3718 34.7498 11.682 35.4441C11.9922 36.1383 12.428 36.6997 12.9894 37.1281C13.5655 37.5565 14.245 37.8667 15.0279 38.0587C15.8256 38.2508 16.6972 38.3468 17.6426 38.3468C18.7948 38.3468 19.7402 38.1843 20.4788 37.8593C21.2322 37.5343 21.7862 37.0838 22.1407 36.5076C22.51 35.9315 22.6947 35.2816 22.6947 34.5577Z"/>
</mask>
<path d="M22.6947 34.5577C22.6947 33.9816 22.606 33.4646 22.4288 33.0067C22.2663 32.5339 21.9561 32.1055 21.4981 31.7215C21.0402 31.3226 20.3976 30.9312 19.5704 30.5471C18.7431 30.163 17.6721 29.7642 16.3574 29.3505C14.895 28.8778 13.5064 28.346 12.1917 27.7552C10.8917 27.1643 9.73949 26.4774 8.73499 25.6944C7.74526 24.8967 6.96233 23.9735 6.38622 22.9247C5.82488 21.8758 5.54421 20.6571 5.54421 19.2686C5.54421 17.9243 5.83965 16.7056 6.43054 15.6125C7.02142 14.5046 7.84866 13.5591 8.91226 12.7762C9.97585 11.9785 11.2315 11.3655 12.6792 10.9371C14.1416 10.5087 15.7444 10.2945 17.4875 10.2945C19.8658 10.2945 21.9413 10.7229 23.7139 11.5797C25.4866 12.4365 26.8604 13.6108 27.8354 15.1028C28.8251 16.5948 29.32 18.301 29.32 20.2214H22.7168C22.7168 19.2759 22.5174 18.4487 22.1185 17.7396C21.7345 17.0158 21.1436 16.4471 20.3459 16.0335C19.563 15.6198 18.5732 15.413 17.3767 15.413C16.2245 15.413 15.2643 15.5903 14.4961 15.9448C13.728 16.2846 13.1519 16.7499 12.7678 17.3408C12.3837 17.9169 12.1917 18.5669 12.1917 19.2907C12.1917 19.8373 12.3246 20.3322 12.5905 20.7753C12.8712 21.2185 13.2848 21.6321 13.8314 22.0162C14.3779 22.4003 15.0501 22.7622 15.8478 23.1019C16.6455 23.4417 17.5687 23.7741 18.6175 24.0991C20.3754 24.6308 21.9191 25.2291 23.2486 25.8939C24.5929 26.5586 25.7156 27.3046 26.6167 28.1318C27.5178 28.9591 28.1973 29.8971 28.6552 30.9459C29.1132 31.9948 29.3421 33.1839 29.3421 34.5134C29.3421 35.9168 29.0688 37.1724 28.5223 38.2803C27.9757 39.3882 27.1854 40.3262 26.1513 41.0944C25.1173 41.8625 23.8838 42.446 22.4509 42.8449C21.018 43.2437 19.4152 43.4432 17.6426 43.4432C16.0472 43.4432 14.474 43.2364 12.9229 42.8227C11.3718 42.3943 9.96108 41.7518 8.69067 40.895C7.43504 40.0382 6.43054 38.945 5.67716 37.6156C4.92378 36.2861 4.54709 34.7128 4.54709 32.8959H11.2167C11.2167 33.9004 11.3718 34.7498 11.682 35.4441C11.9922 36.1383 12.428 36.6997 12.9894 37.1281C13.5655 37.5565 14.245 37.8667 15.0279 38.0587C15.8256 38.2508 16.6972 38.3468 17.6426 38.3468C18.7948 38.3468 19.7402 38.1843 20.4788 37.8593C21.2322 37.5343 21.7862 37.0838 22.1407 36.5076C22.51 35.9315 22.6947 35.2816 22.6947 34.5577Z" fill="white"/>
<path d="M22.4288 33.0067L21.4831 33.3317L21.4893 33.3498L21.4962 33.3676L22.4288 33.0067ZM21.4981 31.7215L20.8413 32.4756L20.8484 32.4817L20.8555 32.4877L21.4981 31.7215ZM16.3574 29.3505L16.0498 30.3021L16.0573 30.3045L16.3574 29.3505ZM12.1917 27.7552L11.7779 28.6655L11.7817 28.6673L12.1917 27.7552ZM8.73499 25.6944L8.10746 26.473L8.11381 26.4782L8.12025 26.4832L8.73499 25.6944ZM6.38622 22.9247L5.5045 23.3966L5.50974 23.4061L6.38622 22.9247ZM6.43054 15.6125L7.31026 16.088L7.31289 16.083L6.43054 15.6125ZM8.91226 12.7762L9.5051 13.5816L9.51226 13.5762L8.91226 12.7762ZM12.6792 10.9371L12.398 9.9774L12.3954 9.97818L12.6792 10.9371ZM27.8354 15.1028L26.9982 15.6499L27.002 15.6556L27.8354 15.1028ZM29.32 20.2214V21.2214H30.32V20.2214H29.32ZM22.7168 20.2214H21.7168V21.2214H22.7168V20.2214ZM22.1185 17.7396L21.2352 18.2084L21.241 18.2192L21.247 18.2299L22.1185 17.7396ZM20.3459 16.0335L19.8788 16.9177L19.8856 16.9212L20.3459 16.0335ZM14.4961 15.9448L14.9006 16.8594L14.9079 16.8561L14.9152 16.8528L14.4961 15.9448ZM12.7678 17.3408L13.5999 17.8955L13.6062 17.8858L12.7678 17.3408ZM12.5905 20.7753L11.733 21.2898L11.7392 21.3002L11.7457 21.3104L12.5905 20.7753ZM18.6175 24.0991L18.3216 25.0543L18.328 25.0562L18.6175 24.0991ZM23.2486 25.8939L22.8014 26.7883L22.8053 26.7903L23.2486 25.8939ZM12.9229 42.8227L12.6567 43.7867L12.6652 43.789L12.9229 42.8227ZM8.69067 40.895L8.12703 41.721L8.13153 41.724L8.69067 40.895ZM4.54709 32.8959V31.8959H3.54709V32.8959H4.54709ZM11.2167 32.8959H12.2167V31.8959H11.2167V32.8959ZM12.9894 37.1281L12.3826 37.9231L12.3927 37.9305L12.9894 37.1281ZM15.0279 38.0587L14.7897 39.0299L14.7939 39.0309L15.0279 38.0587ZM20.4788 37.8593L20.0827 36.9411L20.0761 36.944L20.4788 37.8593ZM22.1407 36.5076L21.2988 35.968L21.2939 35.9757L21.289 35.9835L22.1407 36.5076ZM23.6947 34.5577C23.6947 33.8791 23.5902 33.2368 23.3613 32.6457L21.4962 33.3676C21.6219 33.6924 21.6947 34.0841 21.6947 34.5577H23.6947ZM23.3744 32.6816C23.1422 32.0061 22.7105 31.4331 22.1407 30.9553L20.8555 32.4877C21.2016 32.778 21.3903 33.0618 21.4831 33.3317L23.3744 32.6816ZM22.1549 30.9674C21.6 30.4841 20.8658 30.046 19.9915 29.6401L19.1492 31.4541C19.9294 31.8163 20.4804 32.1612 20.8413 32.4756L22.1549 30.9674ZM19.9915 29.6401C19.1105 29.2311 17.995 28.8174 16.6575 28.3966L16.0573 30.3045C17.3493 30.7109 18.3757 31.0949 19.1492 31.4541L19.9915 29.6401ZM16.665 28.399C15.2351 27.9368 13.8808 27.418 12.6016 26.843L11.7817 28.6673C13.1319 29.2741 14.5549 29.8188 16.0498 30.3021L16.665 28.399ZM12.6055 26.8448C11.3686 26.2826 10.2853 25.6349 9.34973 24.9057L8.12025 26.4832C9.19367 27.3198 10.4149 28.046 11.7779 28.6655L12.6055 26.8448ZM9.36252 24.9158C8.46794 24.1948 7.77216 23.3707 7.2627 22.4432L5.50974 23.4061C6.15251 24.5763 7.02257 25.5986 8.10746 26.473L9.36252 24.9158ZM7.26788 22.4528C6.7963 21.5717 6.54421 20.5201 6.54421 19.2686H4.54421C4.54421 20.7942 4.85346 22.18 5.50456 23.3965L7.26788 22.4528ZM6.54421 19.2686C6.54421 18.0764 6.80468 17.0233 7.31024 16.088L5.55083 15.1369C4.87462 16.3879 4.54421 17.7722 4.54421 19.2686H6.54421ZM7.31289 16.083C7.82984 15.1138 8.55539 14.2806 9.50507 13.5815L8.31944 11.9709C7.14193 12.8377 6.21301 13.8953 5.54818 15.1419L7.31289 16.083ZM9.51226 13.5762C10.4687 12.8588 11.614 12.2952 12.9629 11.896L12.3954 9.97818C10.849 10.4358 9.48295 11.0982 8.31226 11.9762L9.51226 13.5762ZM12.9603 11.8968C14.3194 11.4986 15.8261 11.2945 17.4875 11.2945V9.29449C15.6626 9.29449 13.9638 9.51874 12.398 9.97741L12.9603 11.8968ZM17.4875 11.2945C19.746 11.2945 21.6671 11.701 23.2788 12.48L24.1491 10.6793C22.2154 9.74472 19.9856 9.29449 17.4875 9.29449V11.2945ZM23.2788 12.48C24.9055 13.2663 26.1329 14.3256 26.9982 15.6498L28.6725 14.5558C27.5879 12.8961 26.0677 11.6066 24.1491 10.6793L23.2788 12.48ZM27.002 15.6556C27.8751 16.9717 28.32 18.4827 28.32 20.2214H30.32C30.32 18.1193 29.7751 16.2179 28.6687 14.55L27.002 15.6556ZM29.32 19.2214H22.7168V21.2214H29.32V19.2214ZM23.7168 20.2214C23.7168 19.1323 23.4859 18.1308 22.9901 17.2494L21.247 18.2299C21.5488 18.7666 21.7168 19.4196 21.7168 20.2214H23.7168ZM23.0019 17.2709C22.5134 16.3504 21.766 15.6434 20.8062 15.1457L19.8856 16.9212C20.5212 17.2508 20.9555 17.6812 21.2352 18.2084L23.0019 17.2709ZM20.813 15.1493C19.8445 14.6376 18.6814 14.413 17.3767 14.413V16.413C18.4651 16.413 19.2814 16.6021 19.8788 16.9177L20.813 15.1493ZM17.3767 14.413C16.1292 14.413 15.0151 14.6039 14.0771 15.0369L14.9152 16.8528C15.5135 16.5767 16.3197 16.413 17.3767 16.413V14.413ZM14.0916 15.0303C13.1806 15.4333 12.438 16.0132 11.9293 16.7958L13.6062 17.8858C13.8657 17.4866 14.2754 17.1359 14.9006 16.8594L14.0916 15.0303ZM11.9357 16.7861C11.437 17.5342 11.1917 18.3789 11.1917 19.2907H13.1917C13.1917 18.7548 13.3304 18.2996 13.5998 17.8955L11.9357 16.7861ZM11.1917 19.2907C11.1917 20.0077 11.3684 20.6822 11.733 21.2898L13.448 20.2608C13.2808 19.9821 13.1917 19.6669 13.1917 19.2907H11.1917ZM11.7457 21.3104C12.1132 21.8907 12.6304 22.3945 13.2564 22.8344L14.4063 21.198C13.9392 20.8697 13.6292 20.5463 13.4353 20.2403L11.7457 21.3104ZM13.2564 22.8344C13.8743 23.2686 14.6117 23.6624 15.4559 24.022L16.2396 22.1819C15.4884 21.862 14.8816 21.532 14.4063 21.198L13.2564 22.8344ZM15.4559 24.022C16.2919 24.378 17.2483 24.7217 18.3216 25.0542L18.9135 23.1439C17.8891 22.8264 16.999 22.5054 16.2396 22.1819L15.4559 24.022ZM18.328 25.0562C20.0437 25.5753 21.5328 26.154 22.8014 26.7883L23.6958 24.9994C22.3055 24.3043 20.7071 23.6864 18.9071 23.1419L18.328 25.0562ZM22.8053 26.7903C24.0831 27.4221 25.1226 28.1178 25.9404 28.8685L27.2929 27.3952C26.3085 26.4914 25.1026 25.6951 23.6919 24.9975L22.8053 26.7903ZM25.9404 28.8685C26.746 29.6081 27.3403 30.4336 27.7388 31.3461L29.5717 30.5458C29.0542 29.3607 28.2895 28.3101 27.2929 27.3952L25.9404 28.8685ZM27.7388 31.3461C28.1334 32.2499 28.3421 33.2996 28.3421 34.5134H30.3421C30.3421 33.0683 30.0929 31.7396 29.5717 30.5458L27.7388 31.3461ZM28.3421 34.5134C28.3421 35.7843 28.0954 36.8852 27.6255 37.8379L29.4191 38.7227C30.0422 37.4596 30.3421 36.0492 30.3421 34.5134H28.3421ZM27.6255 37.8379C27.1521 38.7974 26.4674 39.6139 25.555 40.2917L26.7477 41.8971C27.9034 41.0386 28.7993 39.979 29.4191 38.7227L27.6255 37.8379ZM25.555 40.2917C24.6336 40.9762 23.5154 41.5106 22.1828 41.8815L22.7191 43.8083C24.2522 43.3815 25.601 42.7489 26.7477 41.8971L25.555 40.2917ZM22.1828 41.8815C20.852 42.2519 19.3414 42.4432 17.6426 42.4432V44.4432C19.4891 44.4432 21.184 44.2355 22.7191 43.8083L22.1828 41.8815ZM17.6426 42.4432C16.1347 42.4432 14.6481 42.2478 13.1806 41.8565L12.6652 43.789C14.2998 44.2249 15.9597 44.4432 17.6426 44.4432V42.4432ZM13.1891 41.8588C11.7371 41.4578 10.4261 40.8592 9.24982 40.0659L8.13153 41.724C9.49606 42.6443 11.0066 43.3309 12.6567 43.7866L13.1891 41.8588ZM9.25431 40.0689C8.1256 39.2988 7.22563 38.3198 6.54718 37.1225L4.80714 38.1086C5.63544 39.5703 6.74448 40.7776 8.12704 41.721L9.25431 40.0689ZM6.54718 37.1225C5.8938 35.9695 5.54709 34.5728 5.54709 32.8959H3.54709C3.54709 34.8529 3.95376 36.6026 4.80714 38.1086L6.54718 37.1225ZM4.54709 33.8959H11.2167V31.8959H4.54709V33.8959ZM10.2167 32.8959C10.2167 33.998 10.3862 34.9952 10.769 35.852L12.595 35.0361C12.3574 34.5043 12.2167 33.8027 12.2167 32.8959H10.2167ZM10.769 35.852C11.142 36.6868 11.6784 37.3855 12.3827 37.923L13.596 36.3331C13.1777 36.0138 12.8425 35.5899 12.595 35.0361L10.769 35.852ZM12.3927 37.9305C13.0882 38.4477 13.8931 38.81 14.7897 39.0299L15.2661 37.0875C14.5969 36.9233 14.0427 36.6652 13.5861 36.3256L12.3927 37.9305ZM14.7939 39.0309C15.6788 39.244 16.63 39.3468 17.6426 39.3468V37.3468C16.7643 37.3468 15.9724 37.2575 15.262 37.0865L14.7939 39.0309ZM17.6426 39.3468C18.8786 39.3468 19.9739 39.174 20.8816 38.7746L20.0761 36.944C19.5065 37.1946 18.7111 37.3468 17.6426 37.3468V39.3468ZM20.8749 38.7775C21.7762 38.3887 22.5089 37.8174 22.9924 37.0317L21.289 35.9835C21.0634 36.3502 20.6882 36.6799 20.0827 36.9411L20.8749 38.7775ZM22.9826 37.0473C23.4612 36.3007 23.6947 35.4613 23.6947 34.5577H21.6947C21.6947 35.1018 21.5588 35.5624 21.2988 35.968L22.9826 37.0473Z" fill="black" mask="url(#path-3-outside-2_13329_5)"/>
</g>
<g filter="url(#filter2_d_13329_5)">
<path d="M57.0417 28.5289H48.572L48.5267 23.8637H55.6377C56.8908 23.8637 57.9174 23.7052 58.7176 23.3881C59.5178 23.056 60.1141 22.5804 60.5067 21.9614C60.9143 21.3273 61.1181 20.5573 61.1181 19.6515C61.1181 18.6248 60.9218 17.7945 60.5293 17.1604C60.1519 16.5263 59.5555 16.0658 58.7402 15.7789C57.94 15.4921 56.9059 15.3486 55.6377 15.3486H50.9272V43H44.1332V10.0267H55.6377C57.5551 10.0267 59.2686 10.2079 60.7784 10.5702C62.3033 10.9326 63.5941 11.4836 64.651 12.2234C65.7078 12.9632 66.5155 13.8993 67.0741 15.0316C67.6327 16.1488 67.9121 17.4774 67.9121 19.0174C67.9121 20.3762 67.6025 21.6293 66.9835 22.7767C66.3796 23.9241 65.4209 24.8602 64.1074 25.5849C62.809 26.3095 61.1106 26.7096 59.012 26.7851L57.0417 28.5289ZM56.7473 43H46.7149L49.3646 37.7007H56.7473C57.94 37.7007 58.9138 37.512 59.6687 37.1346C60.4236 36.742 60.9822 36.2136 61.3446 35.5493C61.7069 34.885 61.8881 34.1226 61.8881 33.262C61.8881 32.2958 61.722 31.4578 61.3899 30.7483C61.0728 30.0387 60.5595 29.4951 59.8499 29.1177C59.1403 28.7252 58.2043 28.5289 57.0417 28.5289H50.4969L50.5422 23.8637H58.6949L60.2575 25.6981C62.2655 25.6679 63.881 26.0227 65.1039 26.7625C66.3419 27.4872 67.2402 28.4308 67.7988 29.5933C68.3725 30.7558 68.6594 32.0014 68.6594 33.33C68.6594 35.4436 68.1989 37.2251 67.2779 38.6745C66.357 40.1088 65.0058 41.1883 63.2242 41.913C61.4578 42.6377 59.2988 43 56.7473 43Z" fill="#FF3F4B"/>
</g>
<defs>
<filter id="filter0_d_13329_5" x="20.6387" y="10.2723" width="35.6978" height="41.193" filterUnits="userSpaceOnUse" color-interpolation-filters="sRGB">
<feFlood flood-opacity="0" result="BackgroundImageFix"/>
<feColorMatrix in="SourceAlpha" type="matrix" values="0 0 0 0 0 0 0 0 0 0 0 0 0 0 0 0 0 0 127 0" result="hardAlpha"/>
<feOffset dy="4"/>
<feGaussianBlur stdDeviation="2"/>
<feComposite in2="hardAlpha" operator="out"/>
<feColorMatrix type="matrix" values="0 0 0 0 0 0 0 0 0 0 0 0 0 0 0 0 0 0 0.25 0"/>
<feBlend mode="normal" in2="BackgroundImageFix" result="effect1_dropShadow_13329_5"/>
<feBlend mode="normal" in="SourceGraphic" in2="effect1_dropShadow_13329_5" result="shape"/>
</filter>
<filter id="filter1_d_13329_5" x="0.546875" y="10.2945" width="32.7954" height="41.1487" filterUnits="userSpaceOnUse" color-interpolation-filters="sRGB">
<feFlood flood-opacity="0" result="BackgroundImageFix"/>
<feColorMatrix in="SourceAlpha" type="matrix" values="0 0 0 0 0 0 0 0 0 0 0 0 0 0 0 0 0 0 127 0" result="hardAlpha"/>
<feOffset dy="4"/>
<feGaussianBlur stdDeviation="2"/>
<feComposite in2="hardAlpha" operator="out"/>
<feColorMatrix type="matrix" values="0 0 0 0 0 0 0 0 0 0 0 0 0 0 0 0 0 0 0.25 0"/>
<feBlend mode="normal" in2="BackgroundImageFix" result="effect1_dropShadow_13329_5"/>
<feBlend mode="normal" in="SourceGraphic" in2="effect1_dropShadow_13329_5" result="shape"/>
</filter>
<filter id="filter2_d_13329_5" x="35.1333" y="0.0267334" width="40.5261" height="48.9733" filterUnits="userSpaceOnUse" color-interpolation-filters="sRGB">
<feFlood flood-opacity="0" result="BackgroundImageFix"/>
<feColorMatrix in="SourceAlpha" type="matrix" values="0 0 0 0 0 0 0 0 0 0 0 0 0 0 0 0 0 0 127 0" result="hardAlpha"/>
<feOffset dx="-1" dy="-2"/>
<feGaussianBlur stdDeviation="4"/>
<feComposite in2="hardAlpha" operator="out"/>
<feColorMatrix type="matrix" values="0 0 0 0 0 0 0 0 0 0 0 0 0 0 0 0 0 0 0.5 0"/>
<feBlend mode="normal" in2="BackgroundImageFix" result="effect1_dropShadow_13329_5"/>
<feBlend mode="normal" in="SourceGraphic" in2="effect1_dropShadow_13329_5" result="shape"/>
</filter>
</defs>
</svg>
