<svg width="397" height="105" viewBox="0 0 397 105" fill="none" xmlns="http://www.w3.org/2000/svg">
<path d="M39.0608 66.3731C39.0608 65.2385 38.8862 64.2202 38.5371 63.3183C38.2171 62.3873 37.6061 61.5436 36.7042 60.7872C35.8023 60.0016 34.5368 59.2307 32.9075 58.4742C31.2783 57.7178 29.169 56.9323 26.5797 56.1177C23.6995 55.1867 20.9647 54.1393 18.3754 52.9756C15.8151 51.8118 13.5459 50.459 11.5675 48.9171C9.61825 47.346 8.07629 45.5277 6.94165 43.462C5.8361 41.3964 5.28333 38.9962 5.28333 36.2614C5.28333 33.6139 5.86519 31.2137 7.02893 29.0608C8.19267 26.8788 9.8219 25.0168 11.9166 23.4749C14.0114 21.9038 16.4843 20.6964 19.3354 19.8527C22.2157 19.009 25.3723 18.5872 28.8054 18.5872C33.4894 18.5872 37.577 19.4309 41.0682 21.1183C44.5594 22.8057 47.2651 25.1186 49.1853 28.0571C51.1346 30.9955 52.1092 34.3558 52.1092 38.1379H39.1044C39.1044 36.276 38.7117 34.6467 37.9261 33.2502C37.1697 31.8247 36.006 30.7046 34.4349 29.89C32.893 29.0753 30.9437 28.668 28.5872 28.668C26.3179 28.668 24.4268 29.0172 22.9139 29.7154C21.4011 30.3845 20.2664 31.301 19.51 32.4647C18.7536 33.5994 18.3754 34.8795 18.3754 36.3051C18.3754 37.3815 18.6372 38.3561 19.1609 39.2289C19.7137 40.1017 20.5283 40.9164 21.6047 41.6728C22.6812 42.4292 24.0049 43.142 25.576 43.8112C27.147 44.4803 28.9654 45.1349 31.031 45.775C34.4931 46.8223 37.5334 48.0006 40.1518 49.3098C42.7993 50.619 45.0104 52.0882 46.7851 53.7175C48.5598 55.3467 49.8981 57.1941 50.8 59.2598C51.7019 61.3254 52.1528 63.6674 52.1528 66.2858C52.1528 69.0497 51.6146 71.5226 50.5381 73.7047C49.4617 75.8867 47.9052 77.7341 45.8687 79.2469C43.8321 80.7598 41.4028 81.909 38.5807 82.6945C35.7587 83.48 32.6021 83.8728 29.1108 83.8728C25.9688 83.8728 22.8703 83.4655 19.8155 82.6509C16.7607 81.8072 13.9823 80.5416 11.4802 78.8542C9.00728 77.1668 7.02893 75.0139 5.54517 72.3954C4.0614 69.777 3.31952 66.6786 3.31952 63.1001H16.4552C16.4552 65.0785 16.7607 66.7513 17.3716 68.1187C17.9826 69.4861 18.8409 70.5917 19.9464 71.4354C21.0811 72.2791 22.4194 72.89 23.9613 73.2682C25.5323 73.6465 27.2489 73.8356 29.1108 73.8356C31.3801 73.8356 33.2421 73.5155 34.6968 72.8755C36.1805 72.2354 37.2715 71.3481 37.9698 70.2134C38.6971 69.0788 39.0608 67.7987 39.0608 66.3731ZM85.7557 72.3518V51.3173C85.7557 49.8044 85.5084 48.5097 85.0139 47.4333C84.5193 46.3277 83.7483 45.4695 82.7009 44.8585C81.6827 44.2476 80.3589 43.9421 78.7297 43.9421C77.3332 43.9421 76.1258 44.1894 75.1075 44.684C74.0893 45.1495 73.3038 45.8332 72.751 46.735C72.1982 47.6078 71.9218 48.6407 71.9218 49.8335H59.3535C59.3535 47.826 59.8189 45.9204 60.7499 44.1166C61.6809 42.3128 63.0338 40.7273 64.8085 39.3599C66.5832 37.9634 68.6924 36.8724 71.1363 36.0869C73.6092 35.3013 76.3731 34.9086 79.4279 34.9086C83.0937 34.9086 86.3522 35.5195 89.2033 36.7415C92.0545 37.9634 94.2947 39.7963 95.9239 42.2401C97.5822 44.684 98.4114 47.7388 98.4114 51.4045V71.6099C98.4114 74.1992 98.5714 76.3231 98.8914 77.9814C99.2114 79.6106 99.6769 81.0362 100.288 82.2581V83H87.5886C86.9777 81.7199 86.5122 80.1198 86.1921 78.1996C85.9012 76.2503 85.7557 74.3011 85.7557 72.3518ZM87.4141 54.2411L87.5013 61.3545H80.4753C78.817 61.3545 77.3768 61.5436 76.1549 61.9218C74.933 62.3 73.9293 62.8383 73.1437 63.5365C72.3582 64.2056 71.7763 64.9912 71.3981 65.8931C71.049 66.795 70.8745 67.7841 70.8745 68.8606C70.8745 69.9371 71.1217 70.9117 71.6163 71.7845C72.1109 72.6282 72.8237 73.2973 73.7547 73.7919C74.6857 74.2574 75.7767 74.4902 77.0277 74.4902C78.9188 74.4902 80.5626 74.112 81.959 73.3555C83.3555 72.5991 84.432 71.6681 85.1884 70.5626C85.9739 69.457 86.3812 68.4096 86.4103 67.4205L89.727 72.7446C89.2615 73.9374 88.6214 75.1739 87.8068 76.454C87.0213 77.7341 86.0176 78.9415 84.7957 80.0761C83.5737 81.1817 82.1045 82.0981 80.388 82.8254C78.6715 83.5237 76.6349 83.8728 74.2784 83.8728C71.2818 83.8728 68.5615 83.2764 66.1177 82.0836C63.7029 80.8616 61.7828 79.1888 60.3572 77.0649C58.9607 74.912 58.2625 72.4682 58.2625 69.7334C58.2625 67.2605 58.7279 65.0639 59.6589 63.1437C60.5899 61.2236 61.9573 59.6089 63.7611 58.2997C65.594 56.9614 67.8778 55.9577 70.6126 55.2885C73.3474 54.5903 76.5186 54.2411 80.1262 54.2411H87.4141ZM121.366 15.9688V83H108.754V15.9688H121.366ZM141.746 49.0043L153.965 41.1055C155.769 39.9126 156.976 38.7634 157.587 37.6579C158.198 36.5523 158.504 35.3159 158.504 33.9485C158.504 32.5811 157.995 31.3155 156.976 30.1518C155.958 28.959 154.533 28.3625 152.7 28.3625C151.391 28.3625 150.285 28.668 149.383 29.279C148.481 29.8609 147.797 30.6464 147.332 31.6356C146.896 32.6247 146.677 33.7303 146.677 34.9522C146.677 36.2614 147.026 37.5997 147.725 38.9671C148.423 40.3054 149.369 41.731 150.561 43.2438C151.754 44.7276 153.078 46.3423 154.533 48.0879L184.513 83H170.243L145.805 54.7212C143.739 52.161 141.935 49.8189 140.393 47.6951C138.851 45.5422 137.644 43.4475 136.771 41.4109C135.898 39.3744 135.462 37.2797 135.462 35.1268C135.462 31.8101 136.175 28.9153 137.6 26.4424C139.026 23.9403 141.033 22.0056 143.623 20.6382C146.212 19.2418 149.252 18.5435 152.743 18.5435C156.031 18.5435 158.882 19.2272 161.297 20.5946C163.712 21.9329 165.574 23.7076 166.883 25.9187C168.221 28.1298 168.89 30.5591 168.89 33.2066C168.89 35.185 168.527 37.0178 167.799 38.7053C167.072 40.3636 166.068 41.9055 164.788 43.3311C163.508 44.7276 162.039 46.0223 160.38 47.2151L146.459 57.1214C145.383 58.1106 144.568 59.0852 144.015 60.0453C143.463 61.0054 143.084 61.9218 142.881 62.7946C142.677 63.6383 142.575 64.4529 142.575 65.2385C142.575 66.9259 142.939 68.4387 143.666 69.777C144.394 71.1153 145.412 72.1627 146.721 72.9191C148.03 73.6756 149.558 74.0538 151.303 74.0538C153.689 74.0538 156.002 73.5301 158.242 72.4827C160.482 71.4354 162.49 69.9371 164.264 67.9878C166.039 66.0094 167.45 63.6674 168.497 60.9617C169.545 58.256 170.068 55.274 170.068 52.0155H180.717C180.717 55.274 180.397 58.3724 179.757 61.3109C179.117 64.2202 178.084 66.9259 176.658 69.4279C175.233 71.9009 173.341 74.0974 170.985 76.0176C170.81 76.163 170.563 76.3812 170.243 76.6722C169.952 76.934 169.705 77.1377 169.501 77.2831C166.708 79.5233 163.799 81.1962 160.773 82.3018C157.747 83.3782 154.373 83.9164 150.649 83.9164C146.401 83.9164 142.721 83.1455 139.608 81.6035C136.524 80.0616 134.138 77.9377 132.451 75.2321C130.792 72.5264 129.963 69.4279 129.963 65.9367C129.963 63.3765 130.458 61.1508 131.447 59.2598C132.465 57.3396 133.862 55.5649 135.636 53.9357C137.411 52.3064 139.448 50.6627 141.746 49.0043Z" fill="white"/>
<g filter="url(#filter0_d_13323_2)">
<path d="M192.6 55.114H176.279L176.191 46.1241H189.894C192.309 46.1241 194.287 45.8186 195.829 45.2076C197.371 44.5676 198.52 43.6511 199.277 42.4583C200.062 41.2364 200.455 39.7526 200.455 38.007C200.455 36.0287 200.077 34.4285 199.321 33.2066C198.593 31.9847 197.444 31.0973 195.873 30.5446C194.331 29.9918 192.338 29.7154 189.894 29.7154H180.817V83H167.725V19.46H189.894C193.589 19.46 196.891 19.8091 199.801 20.5073C202.739 21.2056 205.227 22.2675 207.263 23.6931C209.3 25.1186 210.856 26.9224 211.933 29.1044C213.009 31.2573 213.547 33.8176 213.547 36.7851C213.547 39.4035 212.951 41.8183 211.758 44.0294C210.594 46.2405 208.747 48.0443 206.216 49.4407C203.714 50.8372 200.441 51.6082 196.397 51.7537L192.6 55.114ZM192.033 83H172.7L177.806 72.7882H192.033C194.331 72.7882 196.208 72.4245 197.662 71.6972C199.117 70.9408 200.193 69.9225 200.892 68.6424C201.59 67.3623 201.939 65.8931 201.939 64.2347C201.939 62.3728 201.619 60.7581 200.979 59.3907C200.368 58.0233 199.379 56.9759 198.011 56.2486C196.644 55.4922 194.84 55.114 192.6 55.114H179.988L180.075 46.1241H195.786L198.797 49.6589C202.666 49.6007 205.779 50.2844 208.136 51.71C210.522 53.1065 212.253 54.9248 213.329 57.165C214.435 59.4052 214.987 61.8054 214.987 64.3657C214.987 68.4387 214.1 71.8718 212.325 74.6647C210.551 77.4286 207.947 79.5088 204.514 80.9053C201.11 82.3018 196.949 83 192.033 83ZM236.589 46.0804V83H224.021V35.7814H235.847L236.589 46.0804ZM250.816 35.4759L250.598 47.1278C249.987 47.0405 249.245 46.9678 248.372 46.9096C247.528 46.8223 246.757 46.7787 246.059 46.7787C244.284 46.7787 242.742 47.0114 241.433 47.4769C240.153 47.9133 239.077 48.5679 238.204 49.4407C237.36 50.3135 236.72 51.3754 236.284 52.6265C235.876 53.8775 235.644 55.3031 235.586 56.9032L233.054 56.1177C233.054 53.0629 233.36 50.2554 233.971 47.6951C234.582 45.1058 235.469 42.8511 236.633 40.9309C237.826 39.0107 239.28 37.527 240.997 36.4796C242.713 35.4323 244.677 34.9086 246.888 34.9086C247.587 34.9086 248.299 34.9668 249.027 35.0831C249.754 35.1704 250.35 35.3013 250.816 35.4759ZM280.753 72.3518V51.3173C280.753 49.8044 280.506 48.5097 280.011 47.4333C279.517 46.3277 278.746 45.4695 277.698 44.8585C276.68 44.2476 275.356 43.9421 273.727 43.9421C272.331 43.9421 271.123 44.1894 270.105 44.684C269.087 45.1495 268.301 45.8332 267.748 46.735C267.196 47.6078 266.919 48.6407 266.919 49.8335H254.351C254.351 47.826 254.816 45.9204 255.747 44.1166C256.678 42.3128 258.031 40.7273 259.806 39.3599C261.58 37.9634 263.69 36.8724 266.134 36.0869C268.607 35.3013 271.37 34.9086 274.425 34.9086C278.091 34.9086 281.349 35.5195 284.201 36.7415C287.052 37.9634 289.292 39.7963 290.921 42.2401C292.58 44.684 293.409 47.7388 293.409 51.4045V71.6099C293.409 74.1992 293.569 76.3231 293.889 77.9814C294.209 79.6106 294.674 81.0362 295.285 82.2581V83H282.586C281.975 81.7199 281.509 80.1198 281.189 78.1996C280.899 76.2503 280.753 74.3011 280.753 72.3518ZM282.411 54.2411L282.499 61.3545H275.473C273.814 61.3545 272.374 61.5436 271.152 61.9218C269.93 62.3 268.927 62.8383 268.141 63.5365C267.356 64.2056 266.774 64.9912 266.395 65.8931C266.046 66.795 265.872 67.7841 265.872 68.8606C265.872 69.9371 266.119 70.9117 266.614 71.7845C267.108 72.6282 267.821 73.2973 268.752 73.7919C269.683 74.2574 270.774 74.4902 272.025 74.4902C273.916 74.4902 275.56 74.112 276.956 73.3555C278.353 72.5991 279.429 71.6681 280.186 70.5626C280.971 69.457 281.379 68.4096 281.408 67.4205L284.724 72.7446C284.259 73.9374 283.619 75.1739 282.804 76.454C282.019 77.7341 281.015 78.9415 279.793 80.0761C278.571 81.1817 277.102 82.0981 275.385 82.8254C273.669 83.5237 271.632 83.8728 269.276 83.8728C266.279 83.8728 263.559 83.2764 261.115 82.0836C258.7 80.8616 256.78 79.1888 255.354 77.0649C253.958 74.912 253.26 72.4682 253.26 69.7334C253.26 67.2605 253.725 65.0639 254.656 63.1437C255.587 61.2236 256.955 59.6089 258.758 58.2997C260.591 56.9614 262.875 55.9577 265.61 55.2885C268.345 54.5903 271.516 54.2411 275.123 54.2411H282.411ZM328.626 69.9516C328.626 69.0497 328.364 68.2351 327.841 67.5078C327.317 66.7804 326.342 66.1113 324.917 65.5003C323.52 64.8602 321.498 64.2784 318.851 63.7547C316.465 63.231 314.24 62.5764 312.174 61.7909C310.137 60.9763 308.363 60.0016 306.85 58.867C305.366 57.7324 304.202 56.3941 303.359 54.8521C302.515 53.2811 302.093 51.4918 302.093 49.4844C302.093 47.506 302.515 45.644 303.359 43.8984C304.231 42.1528 305.468 40.6109 307.068 39.2726C308.697 37.9052 310.676 36.8433 313.003 36.0869C315.36 35.3013 318.007 34.9086 320.946 34.9086C325.048 34.9086 328.568 35.5632 331.507 36.8724C334.474 38.1816 336.743 39.9854 338.314 42.2838C339.915 44.553 340.715 47.1424 340.715 50.0517H328.146C328.146 48.8298 327.884 47.7388 327.361 46.7787C326.866 45.7895 326.081 45.0185 325.004 44.4658C323.957 43.8839 322.589 43.593 320.902 43.593C319.505 43.593 318.298 43.8403 317.28 44.3348C316.262 44.8003 315.476 45.4404 314.923 46.255C314.4 47.0405 314.138 47.9133 314.138 48.8734C314.138 49.6007 314.283 50.2554 314.574 50.8372C314.894 51.39 315.403 51.8991 316.102 52.3646C316.8 52.8301 317.702 53.2665 318.807 53.6738C319.942 54.052 321.338 54.4012 322.997 54.7212C326.401 55.4194 329.441 56.3359 332.117 57.4705C334.794 58.5761 336.918 60.0889 338.489 62.0091C340.06 63.9002 340.846 66.3877 340.846 69.4716C340.846 71.5663 340.38 73.4865 339.449 75.2321C338.518 76.9777 337.18 78.5051 335.434 79.8143C333.689 81.0944 331.594 82.0981 329.15 82.8254C326.735 83.5237 324.015 83.8728 320.989 83.8728C316.596 83.8728 312.872 83.0873 309.817 81.5162C306.792 79.9452 304.493 77.9523 302.922 75.5375C301.38 73.0937 300.609 70.5917 300.609 68.0314H312.523C312.581 69.7479 313.018 71.1299 313.832 72.1772C314.676 73.2246 315.738 73.981 317.018 74.4465C318.327 74.912 319.738 75.1448 321.251 75.1448C322.88 75.1448 324.233 74.9266 325.31 74.4902C326.386 74.0247 327.201 73.4137 327.753 72.6573C328.335 71.8718 328.626 70.9699 328.626 69.9516ZM374.492 72.3518V51.3173C374.492 49.8044 374.245 48.5097 373.75 47.4333C373.256 46.3277 372.485 45.4695 371.437 44.8585C370.419 44.2476 369.095 43.9421 367.466 43.9421C366.07 43.9421 364.862 44.1894 363.844 44.684C362.826 45.1495 362.04 45.8332 361.487 46.735C360.935 47.6078 360.658 48.6407 360.658 49.8335H348.09C348.09 47.826 348.555 45.9204 349.486 44.1166C350.417 42.3128 351.77 40.7273 353.545 39.3599C355.319 37.9634 357.429 36.8724 359.873 36.0869C362.346 35.3013 365.109 34.9086 368.164 34.9086C371.83 34.9086 375.088 35.5195 377.94 36.7415C380.791 37.9634 383.031 39.7963 384.66 42.2401C386.319 44.684 387.148 47.7388 387.148 51.4045V71.6099C387.148 74.1992 387.308 76.3231 387.628 77.9814C387.948 79.6106 388.413 81.0362 389.024 82.2581V83H376.325C375.714 81.7199 375.248 80.1198 374.928 78.1996C374.638 76.2503 374.492 74.3011 374.492 72.3518ZM376.15 54.2411L376.238 61.3545H369.212C367.553 61.3545 366.113 61.5436 364.891 61.9218C363.669 62.3 362.666 62.8383 361.88 63.5365C361.095 64.2056 360.513 64.9912 360.134 65.8931C359.785 66.795 359.611 67.7841 359.611 68.8606C359.611 69.9371 359.858 70.9117 360.353 71.7845C360.847 72.6282 361.56 73.2973 362.491 73.7919C363.422 74.2574 364.513 74.4902 365.764 74.4902C367.655 74.4902 369.299 74.112 370.695 73.3555C372.092 72.5991 373.168 71.6681 373.925 70.5626C374.71 69.457 375.118 68.4096 375.147 67.4205L378.463 72.7446C377.998 73.9374 377.358 75.1739 376.543 76.454C375.758 77.7341 374.754 78.9415 373.532 80.0761C372.31 81.1817 370.841 82.0981 369.124 82.8254C367.408 83.5237 365.371 83.8728 363.015 83.8728C360.018 83.8728 357.298 83.2764 354.854 82.0836C352.439 80.8616 350.519 79.1888 349.094 77.0649C347.697 74.912 346.999 72.4682 346.999 69.7334C346.999 67.2605 347.464 65.0639 348.395 63.1437C349.326 61.2236 350.694 59.6089 352.497 58.2997C354.33 56.9614 356.614 55.9577 359.349 55.2885C362.084 54.5903 365.255 54.2411 368.862 54.2411H376.15Z" fill="#FF3F4B"/>
</g>
<defs>
<filter id="filter0_d_13323_2" x="158.725" y="9.45996" width="237.299" height="80.4128" filterUnits="userSpaceOnUse" color-interpolation-filters="sRGB">
<feFlood flood-opacity="0" result="BackgroundImageFix"/>
<feColorMatrix in="SourceAlpha" type="matrix" values="0 0 0 0 0 0 0 0 0 0 0 0 0 0 0 0 0 0 127 0" result="hardAlpha"/>
<feOffset dx="-1" dy="-2"/>
<feGaussianBlur stdDeviation="4"/>
<feComposite in2="hardAlpha" operator="out"/>
<feColorMatrix type="matrix" values="0 0 0 0 0 0 0 0 0 0 0 0 0 0 0 0 0 0 0.5 0"/>
<feBlend mode="normal" in2="BackgroundImageFix" result="effect1_dropShadow_13323_2"/>
<feBlend mode="normal" in="SourceGraphic" in2="effect1_dropShadow_13323_2" result="shape"/>
</filter>
</defs>
</svg>
